<svg xmlns="http://www.w3.org/2000/svg" width="660" height="640">
<rect width="100%" height="100%" fill="white"/>
<text x="12" y="24" font-size="16" font-family="Arial" font-weight="bold">Topic Similarity Heatmap</text>
<text x="136.0" y="80" text-anchor="middle" font-size="11" font-family="Arial">T0</text>
<text x="98" y="120.0" text-anchor="end" font-size="11" font-family="Arial">T0</text>
<text x="188.0" y="80" text-anchor="middle" font-size="11" font-family="Arial">T1</text>
<text x="98" y="172.0" text-anchor="end" font-size="11" font-family="Arial">T1</text>
<text x="240.0" y="80" text-anchor="middle" font-size="11" font-family="Arial">T2</text>
<text x="98" y="224.0" text-anchor="end" font-size="11" font-family="Arial">T2</text>
<text x="292.0" y="80" text-anchor="middle" font-size="11" font-family="Arial">T3</text>
<text x="98" y="276.0" text-anchor="end" font-size="11" font-family="Arial">T3</text>
<text x="344.0" y="80" text-anchor="middle" font-size="11" font-family="Arial">T4</text>
<text x="98" y="328.0" text-anchor="end" font-size="11" font-family="Arial">T4</text>
<text x="396.0" y="80" text-anchor="middle" font-size="11" font-family="Arial">T5</text>
<text x="98" y="380.0" text-anchor="end" font-size="11" font-family="Arial">T5</text>
<text x="448.0" y="80" text-anchor="middle" font-size="11" font-family="Arial">T6</text>
<text x="98" y="432.0" text-anchor="end" font-size="11" font-family="Arial">T6</text>
<text x="500.0" y="80" text-anchor="middle" font-size="11" font-family="Arial">T7</text>
<text x="98" y="484.0" text-anchor="end" font-size="11" font-family="Arial">T7</text>
<text x="552.0" y="80" text-anchor="middle" font-size="11" font-family="Arial">T8</text>
<text x="98" y="536.0" text-anchor="end" font-size="11" font-family="Arial">T8</text>
<text x="604.0" y="80" text-anchor="middle" font-size="11" font-family="Arial">T9</text>
<text x="98" y="588.0" text-anchor="end" font-size="11" font-family="Arial">T9</text>
<rect x="110" y="90" width="52" height="52" fill="rgb(0,0,255)" stroke="#ddd"/>
<text x="136.0" y="120.0" text-anchor="middle" font-size="10" font-family="Arial">1.00</text>
<rect x="162" y="90" width="52" height="52" fill="rgb(255,255,255)" stroke="#ddd"/>
<text x="188.0" y="120.0" text-anchor="middle" font-size="10" font-family="Arial">0.00</text>
<rect x="214" y="90" width="52" height="52" fill="rgb(240,240,255)" stroke="#ddd"/>
<text x="240.0" y="120.0" text-anchor="middle" font-size="10" font-family="Arial">0.06</text>
<rect x="266" y="90" width="52" height="52" fill="rgb(246,246,255)" stroke="#ddd"/>
<text x="292.0" y="120.0" text-anchor="middle" font-size="10" font-family="Arial">0.04</text>
<rect x="318" y="90" width="52" height="52" fill="rgb(227,227,255)" stroke="#ddd"/>
<text x="344.0" y="120.0" text-anchor="middle" font-size="10" font-family="Arial">0.11</text>
<rect x="370" y="90" width="52" height="52" fill="rgb(255,255,255)" stroke="#ddd"/>
<text x="396.0" y="120.0" text-anchor="middle" font-size="10" font-family="Arial">0.00</text>
<rect x="422" y="90" width="52" height="52" fill="rgb(255,255,255)" stroke="#ddd"/>
<text x="448.0" y="120.0" text-anchor="middle" font-size="10" font-family="Arial">0.00</text>
<rect x="474" y="90" width="52" height="52" fill="rgb(255,255,255)" stroke="#ddd"/>
<text x="500.0" y="120.0" text-anchor="middle" font-size="10" font-family="Arial">0.00</text>
<rect x="526" y="90" width="52" height="52" fill="rgb(239,239,255)" stroke="#ddd"/>
<text x="552.0" y="120.0" text-anchor="middle" font-size="10" font-family="Arial">0.06</text>
<rect x="578" y="90" width="52" height="52" fill="rgb(255,255,255)" stroke="#ddd"/>
<text x="604.0" y="120.0" text-anchor="middle" font-size="10" font-family="Arial">0.00</text>
<rect x="110" y="142" width="52" height="52" fill="rgb(255,255,255)" stroke="#ddd"/>
<text x="136.0" y="172.0" text-anchor="middle" font-size="10" font-family="Arial">0.00</text>
<rect x="162" y="142" width="52" height="52" fill="rgb(0,0,255)" stroke="#ddd"/>
<text x="188.0" y="172.0" text-anchor="middle" font-size="10" font-family="Arial">1.00</text>
<rect x="214" y="142" width="52" height="52" fill="rgb(255,255,255)" stroke="#ddd"/>
<text x="240.0" y="172.0" text-anchor="middle" font-size="10" font-family="Arial">0.00</text>
<rect x="266" y="142" width="52" height="52" fill="rgb(229,229,255)" stroke="#ddd"/>
<text x="292.0" y="172.0" text-anchor="middle" font-size="10" font-family="Arial">0.10</text>
<rect x="318" y="142" width="52" height="52" fill="rgb(255,255,255)" stroke="#ddd"/>
<text x="344.0" y="172.0" text-anchor="middle" font-size="10" font-family="Arial">0.00</text>
<rect x="370" y="142" width="52" height="52" fill="rgb(255,255,255)" stroke="#ddd"/>
<text x="396.0" y="172.0" text-anchor="middle" font-size="10" font-family="Arial">0.00</text>
<rect x="422" y="142" width="52" height="52" fill="rgb(233,233,255)" stroke="#ddd"/>
<text x="448.0" y="172.0" text-anchor="middle" font-size="10" font-family="Arial">0.09</text>
<rect x="474" y="142" width="52" height="52" fill="rgb(255,255,255)" stroke="#ddd"/>
<text x="500.0" y="172.0" text-anchor="middle" font-size="10" font-family="Arial">0.00</text>
<rect x="526" y="142" width="52" height="52" fill="rgb(255,255,255)" stroke="#ddd"/>
<text x="552.0" y="172.0" text-anchor="middle" font-size="10" font-family="Arial">0.00</text>
<rect x="578" y="142" width="52" height="52" fill="rgb(189,189,255)" stroke="#ddd"/>
<text x="604.0" y="172.0" text-anchor="middle" font-size="10" font-family="Arial">0.26</text>
<rect x="110" y="194" width="52" height="52" fill="rgb(240,240,255)" stroke="#ddd"/>
<text x="136.0" y="224.0" text-anchor="middle" font-size="10" font-family="Arial">0.06</text>
<rect x="162" y="194" width="52" height="52" fill="rgb(255,255,255)" stroke="#ddd"/>
<text x="188.0" y="224.0" text-anchor="middle" font-size="10" font-family="Arial">0.00</text>
<rect x="214" y="194" width="52" height="52" fill="rgb(0,0,255)" stroke="#ddd"/>
<text x="240.0" y="224.0" text-anchor="middle" font-size="10" font-family="Arial">1.00</text>
<rect x="266" y="194" width="52" height="52" fill="rgb(211,211,255)" stroke="#ddd"/>
<text x="292.0" y="224.0" text-anchor="middle" font-size="10" font-family="Arial">0.17</text>
<rect x="318" y="194" width="52" height="52" fill="rgb(255,255,255)" stroke="#ddd"/>
<text x="344.0" y="224.0" text-anchor="middle" font-size="10" font-family="Arial">0.00</text>
<rect x="370" y="194" width="52" height="52" fill="rgb(255,255,255)" stroke="#ddd"/>
<text x="396.0" y="224.0" text-anchor="middle" font-size="10" font-family="Arial">0.00</text>
<rect x="422" y="194" width="52" height="52" fill="rgb(255,255,255)" stroke="#ddd"/>
<text x="448.0" y="224.0" text-anchor="middle" font-size="10" font-family="Arial">0.00</text>
<rect x="474" y="194" width="52" height="52" fill="rgb(255,255,255)" stroke="#ddd"/>
<text x="500.0" y="224.0" text-anchor="middle" font-size="10" font-family="Arial">0.00</text>
<rect x="526" y="194" width="52" height="52" fill="rgb(239,239,255)" stroke="#ddd"/>
<text x="552.0" y="224.0" text-anchor="middle" font-size="10" font-family="Arial">0.06</text>
<rect x="578" y="194" width="52" height="52" fill="rgb(255,255,255)" stroke="#ddd"/>
<text x="604.0" y="224.0" text-anchor="middle" font-size="10" font-family="Arial">0.00</text>
<rect x="110" y="246" width="52" height="52" fill="rgb(246,246,255)" stroke="#ddd"/>
<text x="136.0" y="276.0" text-anchor="middle" font-size="10" font-family="Arial">0.04</text>
<rect x="162" y="246" width="52" height="52" fill="rgb(229,229,255)" stroke="#ddd"/>
<text x="188.0" y="276.0" text-anchor="middle" font-size="10" font-family="Arial">0.10</text>
<rect x="214" y="246" width="52" height="52" fill="rgb(211,211,255)" stroke="#ddd"/>
<text x="240.0" y="276.0" text-anchor="middle" font-size="10" font-family="Arial">0.17</text>
<rect x="266" y="246" width="52" height="52" fill="rgb(0,0,255)" stroke="#ddd"/>
<text x="292.0" y="276.0" text-anchor="middle" font-size="10" font-family="Arial">1.00</text>
<rect x="318" y="246" width="52" height="52" fill="rgb(238,238,255)" stroke="#ddd"/>
<text x="344.0" y="276.0" text-anchor="middle" font-size="10" font-family="Arial">0.07</text>
<rect x="370" y="246" width="52" height="52" fill="rgb(239,239,255)" stroke="#ddd"/>
<text x="396.0" y="276.0" text-anchor="middle" font-size="10" font-family="Arial">0.06</text>
<rect x="422" y="246" width="52" height="52" fill="rgb(227,227,255)" stroke="#ddd"/>
<text x="448.0" y="276.0" text-anchor="middle" font-size="10" font-family="Arial">0.11</text>
<rect x="474" y="246" width="52" height="52" fill="rgb(255,255,255)" stroke="#ddd"/>
<text x="500.0" y="276.0" text-anchor="middle" font-size="10" font-family="Arial">0.00</text>
<rect x="526" y="246" width="52" height="52" fill="rgb(245,245,255)" stroke="#ddd"/>
<text x="552.0" y="276.0" text-anchor="middle" font-size="10" font-family="Arial">0.04</text>
<rect x="578" y="246" width="52" height="52" fill="rgb(223,223,255)" stroke="#ddd"/>
<text x="604.0" y="276.0" text-anchor="middle" font-size="10" font-family="Arial">0.12</text>
<rect x="110" y="298" width="52" height="52" fill="rgb(227,227,255)" stroke="#ddd"/>
<text x="136.0" y="328.0" text-anchor="middle" font-size="10" font-family="Arial">0.11</text>
<rect x="162" y="298" width="52" height="52" fill="rgb(255,255,255)" stroke="#ddd"/>
<text x="188.0" y="328.0" text-anchor="middle" font-size="10" font-family="Arial">0.00</text>
<rect x="214" y="298" width="52" height="52" fill="rgb(255,255,255)" stroke="#ddd"/>
<text x="240.0" y="328.0" text-anchor="middle" font-size="10" font-family="Arial">0.00</text>
<rect x="266" y="298" width="52" height="52" fill="rgb(238,238,255)" stroke="#ddd"/>
<text x="292.0" y="328.0" text-anchor="middle" font-size="10" font-family="Arial">0.07</text>
<rect x="318" y="298" width="52" height="52" fill="rgb(0,0,255)" stroke="#ddd"/>
<text x="344.0" y="328.0" text-anchor="middle" font-size="10" font-family="Arial">1.00</text>
<rect x="370" y="298" width="52" height="52" fill="rgb(255,255,255)" stroke="#ddd"/>
<text x="396.0" y="328.0" text-anchor="middle" font-size="10" font-family="Arial">0.00</text>
<rect x="422" y="298" width="52" height="52" fill="rgb(255,255,255)" stroke="#ddd"/>
<text x="448.0" y="328.0" text-anchor="middle" font-size="10" font-family="Arial">0.00</text>
<rect x="474" y="298" width="52" height="52" fill="rgb(255,255,255)" stroke="#ddd"/>
<text x="500.0" y="328.0" text-anchor="middle" font-size="10" font-family="Arial">0.00</text>
<rect x="526" y="298" width="52" height="52" fill="rgb(255,255,255)" stroke="#ddd"/>
<text x="552.0" y="328.0" text-anchor="middle" font-size="10" font-family="Arial">0.00</text>
<rect x="578" y="298" width="52" height="52" fill="rgb(238,238,255)" stroke="#ddd"/>
<text x="604.0" y="328.0" text-anchor="middle" font-size="10" font-family="Arial">0.06</text>
<rect x="110" y="350" width="52" height="52" fill="rgb(255,255,255)" stroke="#ddd"/>
<text x="136.0" y="380.0" text-anchor="middle" font-size="10" font-family="Arial">0.00</text>
<rect x="162" y="350" width="52" height="52" fill="rgb(255,255,255)" stroke="#ddd"/>
<text x="188.0" y="380.0" text-anchor="middle" font-size="10" font-family="Arial">0.00</text>
<rect x="214" y="350" width="52" height="52" fill="rgb(255,255,255)" stroke="#ddd"/>
<text x="240.0" y="380.0" text-anchor="middle" font-size="10" font-family="Arial">0.00</text>
<rect x="266" y="350" width="52" height="52" fill="rgb(239,239,255)" stroke="#ddd"/>
<text x="292.0" y="380.0" text-anchor="middle" font-size="10" font-family="Arial">0.06</text>
<rect x="318" y="350" width="52" height="52" fill="rgb(255,255,255)" stroke="#ddd"/>
<text x="344.0" y="380.0" text-anchor="middle" font-size="10" font-family="Arial">0.00</text>
<rect x="370" y="350" width="52" height="52" fill="rgb(0,0,255)" stroke="#ddd"/>
<text x="396.0" y="380.0" text-anchor="middle" font-size="10" font-family="Arial">1.00</text>
<rect x="422" y="350" width="52" height="52" fill="rgb(241,241,255)" stroke="#ddd"/>
<text x="448.0" y="380.0" text-anchor="middle" font-size="10" font-family="Arial">0.05</text>
<rect x="474" y="350" width="52" height="52" fill="rgb(255,255,255)" stroke="#ddd"/>
<text x="500.0" y="380.0" text-anchor="middle" font-size="10" font-family="Arial">0.00</text>
<rect x="526" y="350" width="52" height="52" fill="rgb(255,255,255)" stroke="#ddd"/>
<text x="552.0" y="380.0" text-anchor="middle" font-size="10" font-family="Arial">0.00</text>
<rect x="578" y="350" width="52" height="52" fill="rgb(239,239,255)" stroke="#ddd"/>
<text x="604.0" y="380.0" text-anchor="middle" font-size="10" font-family="Arial">0.06</text>
<rect x="110" y="402" width="52" height="52" fill="rgb(255,255,255)" stroke="#ddd"/>
<text x="136.0" y="432.0" text-anchor="middle" font-size="10" font-family="Arial">0.00</text>
<rect x="162" y="402" width="52" height="52" fill="rgb(233,233,255)" stroke="#ddd"/>
<text x="188.0" y="432.0" text-anchor="middle" font-size="10" font-family="Arial">0.09</text>
<rect x="214" y="402" width="52" height="52" fill="rgb(255,255,255)" stroke="#ddd"/>
<text x="240.0" y="432.0" text-anchor="middle" font-size="10" font-family="Arial">0.00</text>
<rect x="266" y="402" width="52" height="52" fill="rgb(227,227,255)" stroke="#ddd"/>
<text x="292.0" y="432.0" text-anchor="middle" font-size="10" font-family="Arial">0.11</text>
<rect x="318" y="402" width="52" height="52" fill="rgb(255,255,255)" stroke="#ddd"/>
<text x="344.0" y="432.0" text-anchor="middle" font-size="10" font-family="Arial">0.00</text>
<rect x="370" y="402" width="52" height="52" fill="rgb(241,241,255)" stroke="#ddd"/>
<text x="396.0" y="432.0" text-anchor="middle" font-size="10" font-family="Arial">0.05</text>
<rect x="422" y="402" width="52" height="52" fill="rgb(0,0,255)" stroke="#ddd"/>
<text x="448.0" y="432.0" text-anchor="middle" font-size="10" font-family="Arial">1.00</text>
<rect x="474" y="402" width="52" height="52" fill="rgb(255,255,255)" stroke="#ddd"/>
<text x="500.0" y="432.0" text-anchor="middle" font-size="10" font-family="Arial">0.00</text>
<rect x="526" y="402" width="52" height="52" fill="rgb(227,227,255)" stroke="#ddd"/>
<text x="552.0" y="432.0" text-anchor="middle" font-size="10" font-family="Arial">0.11</text>
<rect x="578" y="402" width="52" height="52" fill="rgb(243,243,255)" stroke="#ddd"/>
<text x="604.0" y="432.0" text-anchor="middle" font-size="10" font-family="Arial">0.05</text>
<rect x="110" y="454" width="52" height="52" fill="rgb(255,255,255)" stroke="#ddd"/>
<text x="136.0" y="484.0" text-anchor="middle" font-size="10" font-family="Arial">0.00</text>
<rect x="162" y="454" width="52" height="52" fill="rgb(255,255,255)" stroke="#ddd"/>
<text x="188.0" y="484.0" text-anchor="middle" font-size="10" font-family="Arial">0.00</text>
<rect x="214" y="454" width="52" height="52" fill="rgb(255,255,255)" stroke="#ddd"/>
<text x="240.0" y="484.0" text-anchor="middle" font-size="10" font-family="Arial">0.00</text>
<rect x="266" y="454" width="52" height="52" fill="rgb(255,255,255)" stroke="#ddd"/>
<text x="292.0" y="484.0" text-anchor="middle" font-size="10" font-family="Arial">0.00</text>
<rect x="318" y="454" width="52" height="52" fill="rgb(255,255,255)" stroke="#ddd"/>
<text x="344.0" y="484.0" text-anchor="middle" font-size="10" font-family="Arial">0.00</text>
<rect x="370" y="454" width="52" height="52" fill="rgb(255,255,255)" stroke="#ddd"/>
<text x="396.0" y="484.0" text-anchor="middle" font-size="10" font-family="Arial">0.00</text>
<rect x="422" y="454" width="52" height="52" fill="rgb(255,255,255)" stroke="#ddd"/>
<text x="448.0" y="484.0" text-anchor="middle" font-size="10" font-family="Arial">0.00</text>
<rect x="474" y="454" width="52" height="52" fill="rgb(0,0,255)" stroke="#ddd"/>
<text x="500.0" y="484.0" text-anchor="middle" font-size="10" font-family="Arial">1.00</text>
<rect x="526" y="454" width="52" height="52" fill="rgb(255,255,255)" stroke="#ddd"/>
<text x="552.0" y="484.0" text-anchor="middle" font-size="10" font-family="Arial">0.00</text>
<rect x="578" y="454" width="52" height="52" fill="rgb(255,255,255)" stroke="#ddd"/>
<text x="604.0" y="484.0" text-anchor="middle" font-size="10" font-family="Arial">0.00</text>
<rect x="110" y="506" width="52" height="52" fill="rgb(239,239,255)" stroke="#ddd"/>
<text x="136.0" y="536.0" text-anchor="middle" font-size="10" font-family="Arial">0.06</text>
<rect x="162" y="506" width="52" height="52" fill="rgb(255,255,255)" stroke="#ddd"/>
<text x="188.0" y="536.0" text-anchor="middle" font-size="10" font-family="Arial">0.00</text>
<rect x="214" y="506" width="52" height="52" fill="rgb(239,239,255)" stroke="#ddd"/>
<text x="240.0" y="536.0" text-anchor="middle" font-size="10" font-family="Arial">0.06</text>
<rect x="266" y="506" width="52" height="52" fill="rgb(245,245,255)" stroke="#ddd"/>
<text x="292.0" y="536.0" text-anchor="middle" font-size="10" font-family="Arial">0.04</text>
<rect x="318" y="506" width="52" height="52" fill="rgb(255,255,255)" stroke="#ddd"/>
<text x="344.0" y="536.0" text-anchor="middle" font-size="10" font-family="Arial">0.00</text>
<rect x="370" y="506" width="52" height="52" fill="rgb(255,255,255)" stroke="#ddd"/>
<text x="396.0" y="536.0" text-anchor="middle" font-size="10" font-family="Arial">0.00</text>
<rect x="422" y="506" width="52" height="52" fill="rgb(227,227,255)" stroke="#ddd"/>
<text x="448.0" y="536.0" text-anchor="middle" font-size="10" font-family="Arial">0.11</text>
<rect x="474" y="506" width="52" height="52" fill="rgb(255,255,255)" stroke="#ddd"/>
<text x="500.0" y="536.0" text-anchor="middle" font-size="10" font-family="Arial">0.00</text>
<rect x="526" y="506" width="52" height="52" fill="rgb(0,0,255)" stroke="#ddd"/>
<text x="552.0" y="536.0" text-anchor="middle" font-size="10" font-family="Arial">1.00</text>
<rect x="578" y="506" width="52" height="52" fill="rgb(255,255,255)" stroke="#ddd"/>
<text x="604.0" y="536.0" text-anchor="middle" font-size="10" font-family="Arial">0.00</text>
<rect x="110" y="558" width="52" height="52" fill="rgb(255,255,255)" stroke="#ddd"/>
<text x="136.0" y="588.0" text-anchor="middle" font-size="10" font-family="Arial">0.00</text>
<rect x="162" y="558" width="52" height="52" fill="rgb(189,189,255)" stroke="#ddd"/>
<text x="188.0" y="588.0" text-anchor="middle" font-size="10" font-family="Arial">0.26</text>
<rect x="214" y="558" width="52" height="52" fill="rgb(255,255,255)" stroke="#ddd"/>
<text x="240.0" y="588.0" text-anchor="middle" font-size="10" font-family="Arial">0.00</text>
<rect x="266" y="558" width="52" height="52" fill="rgb(223,223,255)" stroke="#ddd"/>
<text x="292.0" y="588.0" text-anchor="middle" font-size="10" font-family="Arial">0.12</text>
<rect x="318" y="558" width="52" height="52" fill="rgb(238,238,255)" stroke="#ddd"/>
<text x="344.0" y="588.0" text-anchor="middle" font-size="10" font-family="Arial">0.06</text>
<rect x="370" y="558" width="52" height="52" fill="rgb(239,239,255)" stroke="#ddd"/>
<text x="396.0" y="588.0" text-anchor="middle" font-size="10" font-family="Arial">0.06</text>
<rect x="422" y="558" width="52" height="52" fill="rgb(243,243,255)" stroke="#ddd"/>
<text x="448.0" y="588.0" text-anchor="middle" font-size="10" font-family="Arial">0.05</text>
<rect x="474" y="558" width="52" height="52" fill="rgb(255,255,255)" stroke="#ddd"/>
<text x="500.0" y="588.0" text-anchor="middle" font-size="10" font-family="Arial">0.00</text>
<rect x="526" y="558" width="52" height="52" fill="rgb(255,255,255)" stroke="#ddd"/>
<text x="552.0" y="588.0" text-anchor="middle" font-size="10" font-family="Arial">0.00</text>
<rect x="578" y="558" width="52" height="52" fill="rgb(0,0,255)" stroke="#ddd"/>
<text x="604.0" y="588.0" text-anchor="middle" font-size="10" font-family="Arial">1.00</text>
</svg>